<svg width="56" height="56" viewBox="0 0 56 56" fill="none" xmlns="http://www.w3.org/2000/svg">
<path d="M28.0002 4.66667C40.8809 4.68082 51.3194 15.1192 51.3335 28L51.3335 28.4667C51.077 41.2894 40.5195 51.5014 27.6953 51.3313C14.8711 51.1611 4.5882 40.6726 4.672 27.8475C4.75579 15.0225 15.1748 4.66924 28.0002 4.66667ZM28.0002 46.6667C38.3095 46.6667 46.6668 38.3093 46.6668 28C46.6668 17.6907 38.3095 9.33334 28.0002 9.33334C17.6908 9.33334 9.3335 17.6907 9.33349 28C9.34507 38.3045 17.6956 46.6551 28.0002 46.6667ZM31.3835 16.3333L34.6828 19.635L26.4345 27.8833L34.6828 36.1317L31.3835 39.4333L19.8335 27.8833L31.3812 16.3333L31.3835 16.3333Z" fill="#3A3A3A"/>
</svg>
