<svg width="16" height="16" viewBox="0 0 16 16" fill="none" xmlns="http://www.w3.org/2000/svg">
<path d="M3.66667 13.6667C3.29848 13.6667 3 13.3682 3 13V3.00001C3 2.63182 3.29848 2.33333 3.66667 2.33333H7.92C8.17344 2.33158 8.40596 2.47368 8.52 2.70001L9 3.66668H12.3333C12.7015 3.66668 13 3.96516 13 4.33334V9.66668C13 10.0349 12.7015 10.3333 12.3333 10.3333H8.74C8.48896 10.3326 8.25963 10.1909 8.14667 9.96668L7.66667 9.00001H4.33333V13C4.33333 13.3682 4.03486 13.6667 3.66667 13.6667ZM4.33333 3.66668V7.66668H8.33333L9 9.00001H11.6667V5.00001H8.33333L7.66667 3.66668H4.33333Z" fill="#2D9577"/>
</svg>
