<svg width="110" height="33" viewBox="0 0 110 33" fill="none" xmlns="http://www.w3.org/2000/svg">
<g filter="url(#filter0_d_506_1597)">
<path fill-rule="evenodd" clip-rule="evenodd" d="M4 24.8031V0.708618H106V24.8031H4ZM6.43807 22.3791H103.542V3.21973H6.43807V22.3778V22.3791ZM77.3179 12.2344C77.3021 16.6625 73.6568 19.7492 69.2662 19.0534C66.672 18.6415 65.0238 17.2566 64.5252 14.8075C63.73 10.8983 66.1392 7.10257 70.1441 6.64181C71.2463 6.51506 72.4299 6.56655 73.502 6.8372C75.5398 7.3521 77.4688 9.24665 77.3179 12.2357V12.2344ZM73.9494 12.4654C73.9639 10.7266 72.8157 9.51202 71.1492 9.5041C69.2373 9.49618 67.7257 11.0937 67.7125 13.1374C67.702 14.8722 68.866 16.1251 70.4997 16.1344C72.4667 16.1463 73.9311 14.5884 73.9481 12.4654H73.9494ZM26.3691 18.7537H29.6325L29.6338 18.7551C29.9431 16.7889 30.2514 14.8297 30.5596 12.8706L30.564 12.8432L30.5671 12.8234L30.5738 12.7807L30.5747 12.775L30.5756 12.7694L30.5814 12.7321L30.5905 12.6744C30.8985 10.717 31.2065 8.75949 31.5155 6.79496H28.2495C28.0285 8.17262 27.8117 9.52592 27.5945 10.8824L27.5901 10.9098L27.5873 10.9272L27.5186 11.3564H23.4376C23.5354 10.7287 23.6317 10.1096 23.7277 9.49285L23.728 9.49088C23.8674 8.5944 24.0061 7.70295 24.1475 6.7976H20.888C20.5967 8.65485 20.3069 10.505 20.0171 12.3544C19.6842 14.4793 19.3515 16.6034 19.0168 18.7366H22.2724C22.3243 18.4058 22.3754 18.0775 22.4261 17.751L22.4277 17.7409L22.4278 17.7398C22.6033 16.6106 22.7752 15.5042 22.9692 14.4009C23.0007 14.2227 23.2159 13.9428 23.3536 13.9388C24.2858 13.9105 25.2194 13.9132 26.1942 13.916C26.4915 13.9168 26.7926 13.9177 27.0987 13.9177L26.99 14.6382L26.9891 14.6441L26.9863 14.663C26.7767 16.053 26.5753 17.3891 26.3691 18.7537ZM53.3597 12.6437C54.7427 14.7191 56.0523 16.6836 57.4459 18.7736C57.1343 18.7736 56.8299 18.7743 56.531 18.775C55.5674 18.7774 54.661 18.7796 53.7546 18.7564C53.6182 18.7524 53.4594 18.5306 53.361 18.3762C52.7904 17.4854 52.225 16.5906 51.6595 15.6956L51.6565 15.6909C51.3672 15.233 51.0778 14.7752 50.7878 14.3177C50.7138 14.2017 50.6341 14.0891 50.5274 13.9382L50.527 13.9377L50.5268 13.9375L50.5268 13.9374L50.5267 13.9373L50.5266 13.9371C50.4707 13.8582 50.4075 13.7687 50.3337 13.6629C50.2651 14.0953 50.1968 14.5122 50.1301 14.9185L50.1298 14.9204L50.1294 14.9231L50.1286 14.9282L50.1283 14.9296L50.1282 14.9303C49.984 15.8099 49.8477 16.6406 49.7341 17.4744L49.726 17.5338C49.5559 18.7856 49.5554 18.7893 48.2762 18.7828C47.6857 18.7802 47.0952 18.7722 46.506 18.763C46.4826 18.763 46.4586 18.75 46.417 18.7273C46.391 18.7132 46.3583 18.6953 46.3145 18.6745C46.9312 14.7415 47.5506 10.7848 48.1739 6.79893H51.4229C51.3011 7.5657 51.1808 8.32128 51.0614 9.07104L51.0597 9.08221C50.9301 9.89589 50.8017 10.7027 50.6736 11.5096L50.674 11.5099C50.7277 11.5587 50.7813 11.6074 50.835 11.6574C50.8654 11.6052 50.8931 11.5507 50.9207 11.4964C50.979 11.3819 51.037 11.2678 51.1197 11.1755L51.3897 10.8749L51.3898 10.8747L51.3899 10.8747C52.516 9.62021 53.6423 8.36563 54.7978 7.13823C54.992 6.93227 55.345 6.7844 55.6311 6.77384C56.4812 6.74405 57.3327 6.74854 58.2145 6.75318H58.2145H58.2146H58.2147H58.2147H58.2148H58.2149C58.5443 6.75492 58.878 6.75668 59.2173 6.75668L53.3597 12.6423V12.6437ZM94.9433 12.6238C96.8749 10.6844 98.7986 8.75156 100.783 6.75799C100.45 6.75799 100.12 6.75562 99.7928 6.75327C98.9481 6.74721 98.1201 6.74126 97.2935 6.77647C96.9707 6.78968 96.577 6.95471 96.3526 7.18575C95.7003 7.85874 95.0744 8.55835 94.4487 9.25771C94.1821 9.55578 93.9155 9.8538 93.6469 10.1497C93.3531 10.4725 93.0568 10.7928 92.7241 11.1525L92.7212 11.1556L92.7211 11.1557L92.7209 11.1559L92.718 11.159L92.7115 11.1661L92.7087 11.1691C92.5616 11.3282 92.4072 11.495 92.2428 11.6733C92.3545 10.9718 92.4615 10.301 92.566 9.64569L92.5756 9.58571L92.5792 9.56307L92.5814 9.54935C92.7306 8.61467 92.8749 7.71008 93.0209 6.791H89.7746C89.3478 9.50856 88.9224 12.2224 88.4935 14.9579L87.8942 18.7802C88.1531 18.7802 88.4046 18.7813 88.6506 18.7825C89.3846 18.7859 90.0694 18.789 90.7535 18.7603C90.907 18.7537 91.1445 18.5148 91.1799 18.3471C91.2654 17.9511 91.3197 17.5492 91.3742 17.1469L91.3742 17.1467L91.3743 17.1466L91.3743 17.1464L91.3743 17.1463C91.4051 16.9183 91.436 16.6903 91.4725 16.4631C91.5731 15.8386 91.6795 15.2153 91.7953 14.5365L91.7953 14.5363L91.7956 14.5344C91.8445 14.2482 91.8951 13.952 91.9476 13.6418C92.0338 13.7761 92.1062 13.8882 92.1698 13.9869C92.2707 14.1434 92.3498 14.266 92.4278 14.389C92.6386 14.7225 92.8491 15.0562 93.0596 15.3899L93.0601 15.3908L93.0606 15.3914L93.061 15.3921L93.0614 15.3927C93.6813 16.3755 94.3014 17.3586 94.9289 18.3365C95.0378 18.5069 95.2176 18.7511 95.3698 18.7551C96.2699 18.7822 97.1701 18.7795 98.1239 18.7767H98.124H98.1243C98.4245 18.7758 98.7301 18.7749 99.0426 18.7749C97.6464 16.6796 96.3382 14.7164 94.9433 12.6238ZM87.3943 7.8868C86.996 8.57684 86.6188 9.22903 86.2442 9.87656L86.0244 10.2566C85.8808 10.1659 85.7437 10.0739 85.6098 9.98395C85.3034 9.77813 85.0136 9.58355 84.7004 9.44205C84.3776 9.2955 83.9656 9.18989 83.6349 9.26118C83.3252 9.32851 82.9394 9.60048 82.8318 9.87773C82.7478 10.0943 82.9591 10.555 83.1795 10.7372C83.5127 11.0152 83.9016 11.2275 84.2892 11.439L84.2895 11.4392L84.2896 11.4392C84.4026 11.5009 84.5155 11.5626 84.6269 11.6257C86.4194 12.6423 87.082 13.7817 86.8288 15.4267C86.5361 17.3318 85.2987 18.6283 83.3869 18.994C81.4829 19.3584 79.7495 19.0376 78.268 17.6791C77.8441 17.2909 77.7011 16.9754 78.1158 16.4737C78.4341 16.0871 78.7142 15.6678 79.0036 15.2345L79.0037 15.2344L79.0038 15.2342C79.1295 15.0461 79.2569 14.8554 79.3899 14.6636C79.5034 14.7592 79.6139 14.8547 79.7232 14.9491L79.7232 14.9492C79.9639 15.1571 80.1985 15.3598 80.4449 15.5469C81.0393 16.001 81.7256 16.2836 82.4605 16.1251C82.8305 16.0459 83.2543 15.7607 83.4499 15.4426C83.6874 15.0557 83.4394 14.628 83.0523 14.3785C82.5024 14.0246 81.9474 13.6761 81.3753 13.3605C80.0329 12.6238 79.2075 11.598 79.4437 9.96223C79.6878 8.26307 80.815 6.99696 82.4526 6.62069C84.2792 6.20085 85.901 6.65237 87.393 7.88548L87.3943 7.8868ZM39.9135 11.499H36.5281H36.5254C36.5497 11.3399 36.5783 11.1913 36.6055 11.0498C36.6621 10.7556 36.7127 10.4923 36.7065 10.2302C36.6921 9.65726 36.986 9.5952 37.4427 9.60841C38.2943 9.63217 39.1472 9.63217 39.9988 9.60048C40.1812 9.59388 40.4857 9.43149 40.5132 9.29551C40.6381 8.68821 40.7276 8.07277 40.8198 7.43862V7.43858L40.82 7.43701C40.8508 7.22521 40.8819 7.01133 40.9147 6.79496H33.9981C33.6872 8.77893 33.3759 10.7629 33.0642 12.75C32.7523 14.7378 32.44 16.7288 32.1269 18.726H39.0554L39.2076 17.7239C39.2873 17.1989 39.3666 16.6766 39.4503 16.1265H35.7762L35.8546 15.6511L35.8555 15.6453L35.8579 15.6308C35.9416 15.1235 36.0206 14.6443 36.1042 14.1408H39.5238C39.628 13.4378 39.728 12.7588 39.8317 12.0545L39.8326 12.0482L39.9135 11.499ZM19.165 7.4356L19.165 7.43603C19.0718 8.06936 18.9813 8.68417 18.8554 9.29156C18.8252 9.43415 18.5352 9.60974 18.3568 9.61899C17.8682 9.64677 17.3775 9.64257 16.8647 9.63818C16.671 9.63651 16.4741 9.63483 16.273 9.63483L15.5968 13.8952L15.593 13.9191C15.3373 15.5307 15.082 17.1395 14.8257 18.7538H11.5727C11.7909 17.3628 12.008 15.9799 12.2255 14.5943L12.2283 14.5766C12.4847 12.9433 12.7416 11.3063 13.0017 9.64803H10.3432L10.4835 8.78889C10.594 8.11189 10.7005 7.45969 10.809 6.79366H19.2609C19.2277 7.00999 19.1962 7.22383 19.165 7.4356ZM59.057 12.9567C58.7526 14.8887 58.4473 16.8261 58.1387 18.7828H58.14C58.4162 18.7828 58.6883 18.7807 58.9573 18.7787C59.6045 18.7738 60.234 18.7691 60.8615 18.7933C61.33 18.8118 61.4848 18.6587 61.5557 18.1834C61.8181 16.4081 62.1015 14.6353 62.385 12.8624C62.5267 11.9758 62.6684 11.0893 62.8075 10.2025C62.93 9.42281 63.0442 8.64247 63.1603 7.849C63.2109 7.50313 63.2618 7.15477 63.314 6.80287H60.027C59.7026 8.85911 59.3803 10.9048 59.057 12.9567Z" fill="url(#paint0_linear_506_1597)"/>
</g>
<defs>
<filter id="filter0_d_506_1597" x="0" y="0.708618" width="110" height="32.0945" filterUnits="userSpaceOnUse" color-interpolation-filters="sRGB">
<feFlood flood-opacity="0" result="BackgroundImageFix"/>
<feColorMatrix in="SourceAlpha" type="matrix" values="0 0 0 0 0 0 0 0 0 0 0 0 0 0 0 0 0 0 127 0" result="hardAlpha"/>
<feOffset dy="4"/>
<feGaussianBlur stdDeviation="2"/>
<feComposite in2="hardAlpha" operator="out"/>
<feColorMatrix type="matrix" values="0 0 0 0 0 0 0 0 0 0 0 0 0 0 0 0 0 0 0.25 0"/>
<feBlend mode="normal" in2="BackgroundImageFix" result="effect1_dropShadow_506_1597"/>
<feBlend mode="normal" in="SourceGraphic" in2="effect1_dropShadow_506_1597" result="shape"/>
</filter>
<linearGradient id="paint0_linear_506_1597" x1="-3.42913" y1="27.6141" x2="133.508" y2="-1.50005" gradientUnits="userSpaceOnUse">
<stop stop-color="#43EA82"/>
<stop offset="0.5699" stop-color="#51CFA5"/>
<stop offset="0.57" stop-color="#51CEA6"/>
<stop offset="1" stop-color="#4EC6AB"/>
</linearGradient>
</defs>
</svg>
