<svg width="19" height="19" viewBox="0 0 19 19" fill="none" xmlns="http://www.w3.org/2000/svg">
<path d="M13.2037 17.6703H5.66314C4.83023 17.6703 4.15503 16.9951 4.15503 16.1622V2.58922C4.15503 1.75632 4.83023 1.08112 5.66314 1.08112H13.2037C14.0366 1.08112 14.7118 1.75632 14.7118 2.58922V16.1622C14.7118 16.9951 14.0366 17.6703 13.2037 17.6703ZM5.66314 2.58922V16.1622H13.2037V2.58922H5.66314ZM9.43341 15.4081C9.01696 15.4081 8.67935 15.0705 8.67935 14.6541C8.67935 14.2376 9.01696 13.9 9.43341 13.9C9.84986 13.9 10.1875 14.2376 10.1875 14.6541C10.1875 15.0705 9.84986 15.4081 9.43341 15.4081Z" fill="#2D9577"/>
</svg>
